<svg width="98" height="32" viewBox="0 0 98 32" fill="none" xmlns="http://www.w3.org/2000/svg">
    <path d="M89.0837 12.5404L87.6294 16.581L87.04 18.2219L86.2701 20.337C86.9354 18.9427 88.4658 18.1175 90.3004 18.2503L90.2909 18.2314H91.1179L89.0837 12.5404ZM38.875 21.3709H42.8864C43.5518 21.3709 44.3597 21.2855 44.9301 20.9061C45.3958 20.6026 45.5194 20.0809 45.5194 19.5593C45.5194 19.0186 45.3863 18.4875 44.9301 18.1555C44.4168 17.7951 43.4472 17.7381 42.8483 17.7381H38.8845V21.3709H38.875ZM44.5118 14.0011C44.8825 13.7545 44.9966 13.3656 44.9966 12.9293C44.9966 12.5025 44.8825 12.1136 44.5023 11.8575C44.1031 11.5635 43.143 11.535 42.6772 11.535H38.875V12.2179H38.8655V16.4956C39.3883 14.7978 40.7856 14.5417 42.1164 14.4374C43.0575 14.371 43.9605 14.371 44.5118 14.0011ZM63.0573 14.4564L56.2798 24.8803L52.0688 24.8993V10.7098V10.1123C52.0688 10.0649 52.0688 10.008 52.0783 9.96053C52.1163 9.45783 52.335 9.04049 52.7057 8.69903C53.1239 8.31964 53.6277 8.11097 54.1981 8.08252H54.2171H56.2608V18.4875L61.66 10.1218C62.9052 8.18685 63.1619 8.06355 65.4527 8.06355H67.2398V24.8708H63.0478V14.4564H63.0573ZM73.6656 11.5824H68.4375V10.1123C68.4375 9.55268 68.6561 9.07843 69.0744 8.68955C69.5021 8.30067 70.0154 8.12046 70.5858 8.12046H83.1427V9.59062C83.1427 10.1502 82.9241 10.6245 82.5058 11.0039C82.0876 11.3927 81.5743 11.573 80.9944 11.573H77.9051V24.8708H73.6656V11.5824ZM92.3156 21.5416H85.8613L84.7301 24.8803H80.234L86.251 9.38195C86.6218 8.51882 87.3442 8.12046 88.2662 8.12046H91.3461L98 24.8803H93.5038L92.3156 21.5416ZM47.5156 15.8127C48.143 16.1257 48.6943 16.5525 49.1221 17.1121C49.6734 17.8425 49.854 18.7435 49.854 19.6446C49.854 21.2096 49.3312 22.5565 48.0954 23.5429C46.6981 24.5863 44.8445 24.8708 43.143 24.8708H34.7876V10.1123C34.7876 9.55268 35.0062 9.07843 35.4244 8.68955C35.8522 8.30067 36.3655 8.12046 36.9358 8.12046H43.3997C44.8635 8.12046 46.5175 8.33861 47.7437 9.2207C48.7989 10.0459 49.2932 11.1746 49.2932 12.5025C49.2932 13.2992 49.1221 14.0675 48.6753 14.7409C48.3616 15.1867 47.9624 15.5377 47.5156 15.8127Z" fill="white"/>
    <path d="M16.0782 32C24.958 32 32.1564 24.8366 32.1564 16C32.1564 7.16344 24.958 0 16.0782 0C7.19846 0 0 7.16344 0 16C0 24.8366 7.19846 32 16.0782 32Z" fill="white"/>
    <path d="M7.7039 20.5611C7.39758 17.3387 6.66241 17.4871 5.37586 14.6838C4.33437 12.4133 3.66047 10.2388 4.29937 7.07746C2.16388 9.81087 1.34119 13.0683 1.34119 16.1422C1.34119 22.8491 6.45236 29.1368 13.3577 30.3507C10.5746 28.4382 8.08023 24.587 7.7039 20.5611Z" fill="#30B648"/>
    <path d="M17.4003 19.1631C28.7954 10.9017 19.7808 1.92428 19.5095 1.62736C20.3847 9.19008 13.9783 11.4956 11.904 13.6089C8.94586 16.6393 8.49075 18.9972 9.20842 22.1585C9.9961 25.6429 12.9543 29.826 16.7351 30.577C12.8055 29.0837 11.4402 23.4859 17.4003 19.1631Z" fill="#30B648"/>
    <path d="M21.5053 2.25794C23.4133 4.47611 24.8311 8.03041 24.1484 11.7244C22.8356 18.8331 15.729 19.9072 14.7138 24.5269C14.0749 27.4175 15.8165 29.8278 18.836 29.8278C25.1112 29.8453 30.8962 23.0947 30.7825 15.8115C30.6949 10.0914 27.4304 4.64203 21.5053 2.25794Z" fill="#30A8FF"/>
    <path d="M13.664 10.7706C19.7466 6.82332 18.2938 1.38271 18.2938 1.38271C17.7512 1.27791 17.0948 1.21678 16.3684 1.21678C12.4562 1.22551 6.57485 2.88477 5.54211 7.01545C4.1768 12.4561 8.18522 16.8749 8.18522 16.8749C8.18522 16.8749 9.13919 13.7049 13.664 10.7706Z" fill="#FF6F20"/>
</svg>
