<svg width="16" height="16" viewBox="0 0 16 16" fill="none" xmlns="http://www.w3.org/2000/svg">
    <path d="M8.53686 15.732C8.53676 16.0198 8.28405 16.2728 8.0046 16.2688L8.00007 16.2687C7.70777 16.2687 7.46341 16.0173 7.46345 15.7321L7.46409 8.52888L0.26776 8.53656C-0.0200472 8.53651 -0.272694 8.28394 -0.26862 8.00454L-0.268751 7.99538C-0.272776 7.71595 -0.019733 7.46328 0.268093 7.46315L7.46418 7.46951L7.46482 0.266419C7.46488 -0.0215798 7.71095 -0.267476 7.99035 -0.263439L8.00397 -0.26383C8.28667 -0.271941 8.5358 -0.0227242 8.53154 0.268304L8.53088 7.46209L15.7268 7.4685L15.7317 7.46843C16.02 7.4642 16.2678 7.70505 16.2636 8.00063L16.2637 8.00964C16.2678 8.28903 16.0215 8.53513 15.7335 8.53519L8.53047 8.5358L8.53686 15.732Z" fill="white"/>
</svg>
