<svg width="13" height="15" viewBox="0 0 13 15" fill="none" xmlns="http://www.w3.org/2000/svg">
    <path d="M4.19139 11.8815C4.42839 11.8815 4.58432 11.7318 4.57808 11.5135L4.38474 4.83992C4.3785 4.62162 4.22257 4.47817 3.99804 4.47817C3.76104 4.47817 3.60511 4.62786 3.61135 4.84615L3.79846 11.5135C3.8047 11.738 3.96062 11.8815 4.19139 11.8815ZM6.03757 11.8815C6.27457 11.8815 6.44297 11.7318 6.44297 11.5135V4.84615C6.44297 4.62786 6.27457 4.47817 6.03757 4.47817C5.80052 4.47817 5.6384 4.62786 5.6384 4.84615V11.5135C5.6384 11.7318 5.80052 11.8815 6.03757 11.8815ZM7.88992 11.8815C8.11447 11.8815 8.27041 11.738 8.27664 11.5135L8.46371 4.84615C8.46999 4.62786 8.31405 4.47817 8.07705 4.47817C7.85251 4.47817 7.69657 4.62162 7.69034 4.84615L7.50326 11.5135C7.49698 11.7318 7.65292 11.8815 7.88992 11.8815ZM3.2995 2.85031H4.29118V1.51559C4.29118 1.16008 4.54066 0.929312 4.91488 0.929312H7.14774C7.52194 0.929312 7.77145 1.16008 7.77145 1.51559V2.85031H8.76309V1.45322C8.76309 0.548856 8.17685 0 7.21634 0H4.84628C3.88578 0 3.2995 0.548856 3.2995 1.45322V2.85031ZM0.467897 3.34927H11.6134C11.8692 3.34927 12.075 3.13098 12.075 2.87526C12.075 2.61954 11.8692 2.40749 11.6134 2.40749H0.467897C0.218417 2.40749 0.00012207 2.61954 0.00012207 2.87526C0.00012207 3.13721 0.218417 3.34927 0.467897 3.34927ZM3.18099 13.8898H8.90035C9.7922 13.8898 10.391 13.3098 10.4346 12.4179L10.8712 3.23077H9.86708L9.44918 12.3118C9.43673 12.686 9.16854 12.948 8.80056 12.948H3.26831C2.91281 12.948 2.64461 12.6798 2.6259 12.3118L2.18307 3.23077H1.20386L1.64669 12.4241C1.69035 13.316 2.27663 13.8898 3.18099 13.8898Z" fill="#FF5252"/>
</svg>
